{
	"asset":{
		"generator":"Khronos glTF Blender I/O v5.0.21",
		"version":"2.0"
	},
	"extensionsUsed":[
		"KHR_materials_specular"
	],
	"scene":0,
	"scenes":[
		{
			"name":"Scene",
			"nodes":[
				8
			]
		}
	],
	"nodes":[
		{
			"name":"BoneHead",
			"rotation":[
				1.3552533773513706e-16,
				1.1641531294515062e-08,
				1.1641532182693481e-08,
				1
			],
			"translation":[
				1.7763568394002505e-15,
				1.2000000476837158,
				-5.293955920339377e-23
			]
		},
		{
			"name":"BoneArmLeft",
			"rotation":[
				-1,
				2.481541837659083e-23,
				7.549790126404332e-08,
				6.661339206542123e-16
			],
			"translation":[
				0.6000000238418579,
				0.9999998211860657,
				3.0370599368723106e-09
			]
		},
		{
			"name":"BoneArmRight",
			"rotation":[
				-1,
				2.481541837659083e-23,
				7.549790126404332e-08,
				6.661339206542123e-16
			],
			"translation":[
				-0.6000000238418579,
				0.9999998211860657,
				-3.037059048693891e-09
			]
		},
		{
			"children":[
				0,
				1,
				2
			],
			"name":"BoneBody",
			"rotation":[
				0,
				-1.1641531294515062e-08,
				-1.1641531294515062e-08,
				1
			],
			"translation":[
				0,
				1.219298005104065,
				0
			]
		},
		{
			"name":"BoneLegRight",
			"rotation":[
				1,
				0,
				7.549790126404332e-08,
				0
			],
			"translation":[
				-0.20000004768371582,
				1.219298005104065,
				1.6292068494294654e-07
			]
		},
		{
			"name":"BoneLegLeft",
			"rotation":[
				1,
				0,
				7.549790126404332e-08,
				0
			],
			"translation":[
				0.20000004768371582,
				1.219298005104065,
				-3.1391647326017846e-07
			]
		},
		{
			"mesh":0,
			"name":"MeshInnerLayer",
			"skin":0
		},
		{
			"mesh":1,
			"name":"MeshOuterLayer",
			"skin":0
		},
		{
			"children":[
				6,
				7,
				3,
				4,
				5
			],
			"name":"PlayerArma",
			"scale":[
				0.6203539967536926,
				0.6203539967536926,
				0.6203539967536926
			],
			"translation":[
				0,
				-1,
				0
			]
		}
	],
	"animations":[
		{
			"channels":[
				{
					"sampler":0,
					"target":{
						"node":3,
						"path":"translation"
					}
				},
				{
					"sampler":1,
					"target":{
						"node":3,
						"path":"rotation"
					}
				},
				{
					"sampler":2,
					"target":{
						"node":3,
						"path":"scale"
					}
				},
				{
					"sampler":3,
					"target":{
						"node":0,
						"path":"translation"
					}
				},
				{
					"sampler":4,
					"target":{
						"node":0,
						"path":"rotation"
					}
				},
				{
					"sampler":5,
					"target":{
						"node":0,
						"path":"scale"
					}
				},
				{
					"sampler":6,
					"target":{
						"node":1,
						"path":"translation"
					}
				},
				{
					"sampler":7,
					"target":{
						"node":1,
						"path":"rotation"
					}
				},
				{
					"sampler":8,
					"target":{
						"node":1,
						"path":"scale"
					}
				},
				{
					"sampler":9,
					"target":{
						"node":2,
						"path":"translation"
					}
				},
				{
					"sampler":10,
					"target":{
						"node":2,
						"path":"rotation"
					}
				},
				{
					"sampler":11,
					"target":{
						"node":2,
						"path":"scale"
					}
				},
				{
					"sampler":12,
					"target":{
						"node":4,
						"path":"translation"
					}
				},
				{
					"sampler":13,
					"target":{
						"node":4,
						"path":"rotation"
					}
				},
				{
					"sampler":14,
					"target":{
						"node":4,
						"path":"scale"
					}
				},
				{
					"sampler":15,
					"target":{
						"node":5,
						"path":"translation"
					}
				},
				{
					"sampler":16,
					"target":{
						"node":5,
						"path":"rotation"
					}
				},
				{
					"sampler":17,
					"target":{
						"node":5,
						"path":"scale"
					}
				}
			],
			"name":"Idle",
			"samplers":[
				{
					"input":15,
					"interpolation":"STEP",
					"output":16
				},
				{
					"input":15,
					"interpolation":"STEP",
					"output":17
				},
				{
					"input":15,
					"interpolation":"STEP",
					"output":18
				},
				{
					"input":15,
					"interpolation":"STEP",
					"output":19
				},
				{
					"input":15,
					"interpolation":"STEP",
					"output":20
				},
				{
					"input":15,
					"interpolation":"STEP",
					"output":18
				},
				{
					"input":15,
					"interpolation":"LINEAR",
					"output":21
				},
				{
					"input":22,
					"interpolation":"LINEAR",
					"output":23
				},
				{
					"input":15,
					"interpolation":"STEP",
					"output":18
				},
				{
					"input":15,
					"interpolation":"LINEAR",
					"output":24
				},
				{
					"input":22,
					"interpolation":"LINEAR",
					"output":25
				},
				{
					"input":15,
					"interpolation":"STEP",
					"output":26
				},
				{
					"input":15,
					"interpolation":"STEP",
					"output":27
				},
				{
					"input":15,
					"interpolation":"STEP",
					"output":28
				},
				{
					"input":15,
					"interpolation":"STEP",
					"output":18
				},
				{
					"input":15,
					"interpolation":"STEP",
					"output":29
				},
				{
					"input":15,
					"interpolation":"STEP",
					"output":28
				},
				{
					"input":15,
					"interpolation":"STEP",
					"output":18
				}
			]
		}
	],
	"materials":[
		{
			"alphaMode":"BLEND",
			"doubleSided":true,
			"extensions":{
				"KHR_materials_specular":{
					"specularFactor":0
				}
			},
			"name":"char.006",
			"pbrMetallicRoughness":{
				"baseColorFactor":[
					0.5,
					0.5,
					0.5,
					1
				],
				"baseColorTexture":{
					"index":0
				},
				"metallicFactor":0,
				"roughnessFactor":0.699999988079071
			}
		}
	],
	"meshes":[
		{
			"name":"Cube.001",
			"primitives":[
				{
					"attributes":{
						"POSITION":0,
						"NORMAL":1,
						"TEXCOORD_0":2,
						"JOINTS_0":3,
						"WEIGHTS_0":4
					},
					"indices":5,
					"material":0
				}
			]
		},
		{
			"name":"Cube.006",
			"primitives":[
				{
					"attributes":{
						"POSITION":7,
						"NORMAL":8,
						"TEXCOORD_0":9,
						"COLOR_0":10,
						"COLOR_1":11,
						"JOINTS_0":12,
						"WEIGHTS_0":13
					},
					"indices":14,
					"material":0
				}
			]
		}
	],
	"textures":[
		{
			"sampler":0,
			"source":0
		}
	],
	"images":[
		{
			"mimeType":"image/png",
			"name":"al",
			"uri":"al.png"
		}
	],
	"skins":[
		{
			"inverseBindMatrices":6,
			"joints":[
				3,
				0,
				1,
				2,
				4,
				5
			],
			"name":"PlayerArma"
		}
	],
	"accessors":[
		{
			"bufferView":0,
			"componentType":5126,
			"count":144,
			"max":[
				0.43436792492866516,
				0.9979740977287292,
				0.24814197421073914
			],
			"min":[
				-0.4342566430568695,
				-0.98802649974823,
				-0.2481418251991272
			],
			"type":"VEC3"
		},
		{
			"bufferView":1,
			"componentType":5126,
			"count":144,
			"type":"VEC3"
		},
		{
			"bufferView":2,
			"componentType":5126,
			"count":144,
			"type":"VEC2"
		},
		{
			"bufferView":3,
			"componentType":5121,
			"count":144,
			"type":"VEC4"
		},
		{
			"bufferView":4,
			"componentType":5126,
			"count":144,
			"type":"VEC4"
		},
		{
			"bufferView":5,
			"componentType":5123,
			"count":216,
			"type":"SCALAR"
		},
		{
			"bufferView":6,
			"componentType":5126,
			"count":6,
			"type":"MAT4"
		},
		{
			"bufferView":7,
			"componentType":5126,
			"count":144,
			"max":[
				0.452048122882843,
				1.033210277557373,
				0.2833782136440277
			],
			"min":[
				-0.4519367218017578,
				-1.0055204629898071,
				-0.283378005027771
			],
			"type":"VEC3"
		},
		{
			"bufferView":8,
			"componentType":5126,
			"count":144,
			"type":"VEC3"
		},
		{
			"bufferView":9,
			"componentType":5126,
			"count":144,
			"type":"VEC2"
		},
		{
			"bufferView":10,
			"componentType":5121,
			"count":144,
			"normalized":true,
			"type":"VEC4"
		},
		{
			"bufferView":11,
			"componentType":5123,
			"count":144,
			"normalized":true,
			"type":"VEC4"
		},
		{
			"bufferView":12,
			"componentType":5121,
			"count":144,
			"type":"VEC4"
		},
		{
			"bufferView":13,
			"componentType":5126,
			"count":144,
			"type":"VEC4"
		},
		{
			"bufferView":14,
			"componentType":5123,
			"count":216,
			"type":"SCALAR"
		},
		{
			"bufferView":15,
			"componentType":5126,
			"count":2,
			"max":[
				3.8333333333333335
			],
			"min":[
				0
			],
			"type":"SCALAR"
		},
		{
			"bufferView":16,
			"componentType":5126,
			"count":2,
			"type":"VEC3"
		},
		{
			"bufferView":17,
			"componentType":5126,
			"count":2,
			"type":"VEC4"
		},
		{
			"bufferView":18,
			"componentType":5126,
			"count":2,
			"type":"VEC3"
		},
		{
			"bufferView":19,
			"componentType":5126,
			"count":2,
			"type":"VEC3"
		},
		{
			"bufferView":20,
			"componentType":5126,
			"count":2,
			"type":"VEC4"
		},
		{
			"bufferView":21,
			"componentType":5126,
			"count":2,
			"type":"VEC3"
		},
		{
			"bufferView":22,
			"componentType":5126,
			"count":93,
			"max":[
				3.8333333333333335
			],
			"min":[
				0
			],
			"type":"SCALAR"
		},
		{
			"bufferView":23,
			"componentType":5126,
			"count":93,
			"type":"VEC4"
		},
		{
			"bufferView":24,
			"componentType":5126,
			"count":2,
			"type":"VEC3"
		},
		{
			"bufferView":25,
			"componentType":5126,
			"count":93,
			"type":"VEC4"
		},
		{
			"bufferView":26,
			"componentType":5126,
			"count":2,
			"type":"VEC3"
		},
		{
			"bufferView":27,
			"componentType":5126,
			"count":2,
			"type":"VEC3"
		},
		{
			"bufferView":28,
			"componentType":5126,
			"count":2,
			"type":"VEC4"
		},
		{
			"bufferView":29,
			"componentType":5126,
			"count":2,
			"type":"VEC3"
		}
	],
	"bufferViews":[
		{
			"buffer":0,
			"byteLength":1728,
			"byteOffset":0,
			"target":34962
		},
		{
			"buffer":0,
			"byteLength":1728,
			"byteOffset":1728,
			"target":34962
		},
		{
			"buffer":0,
			"byteLength":1152,
			"byteOffset":3456,
			"target":34962
		},
		{
			"buffer":0,
			"byteLength":576,
			"byteOffset":4608,
			"target":34962
		},
		{
			"buffer":0,
			"byteLength":2304,
			"byteOffset":5184,
			"target":34962
		},
		{
			"buffer":0,
			"byteLength":432,
			"byteOffset":7488,
			"target":34963
		},
		{
			"buffer":0,
			"byteLength":384,
			"byteOffset":7920
		},
		{
			"buffer":0,
			"byteLength":1728,
			"byteOffset":8304,
			"target":34962
		},
		{
			"buffer":0,
			"byteLength":1728,
			"byteOffset":10032,
			"target":34962
		},
		{
			"buffer":0,
			"byteLength":1152,
			"byteOffset":11760,
			"target":34962
		},
		{
			"buffer":0,
			"byteLength":576,
			"byteOffset":12912,
			"target":34962
		},
		{
			"buffer":0,
			"byteLength":1152,
			"byteOffset":13488,
			"target":34962
		},
		{
			"buffer":0,
			"byteLength":576,
			"byteOffset":14640,
			"target":34962
		},
		{
			"buffer":0,
			"byteLength":2304,
			"byteOffset":15216,
			"target":34962
		},
		{
			"buffer":0,
			"byteLength":432,
			"byteOffset":17520,
			"target":34963
		},
		{
			"buffer":0,
			"byteLength":8,
			"byteOffset":17952
		},
		{
			"buffer":0,
			"byteLength":24,
			"byteOffset":17960
		},
		{
			"buffer":0,
			"byteLength":32,
			"byteOffset":17984
		},
		{
			"buffer":0,
			"byteLength":24,
			"byteOffset":18016
		},
		{
			"buffer":0,
			"byteLength":24,
			"byteOffset":18040
		},
		{
			"buffer":0,
			"byteLength":32,
			"byteOffset":18064
		},
		{
			"buffer":0,
			"byteLength":24,
			"byteOffset":18096
		},
		{
			"buffer":0,
			"byteLength":372,
			"byteOffset":18120
		},
		{
			"buffer":0,
			"byteLength":1488,
			"byteOffset":18492
		},
		{
			"buffer":0,
			"byteLength":24,
			"byteOffset":19980
		},
		{
			"buffer":0,
			"byteLength":1488,
			"byteOffset":20004
		},
		{
			"buffer":0,
			"byteLength":24,
			"byteOffset":21492
		},
		{
			"buffer":0,
			"byteLength":24,
			"byteOffset":21516
		},
		{
			"buffer":0,
			"byteLength":32,
			"byteOffset":21540
		},
		{
			"buffer":0,
			"byteLength":24,
			"byteOffset":21572
		}
	],
	"samplers":[
		{
			"magFilter":9728,
			"minFilter":9984
		}
	],
	"buffers":[
		{
			"byteLength":21596,
			"uri":"PlayerSlim.bin"
		}
	]
}
