{
	"asset":{
		"generator":"Khronos glTF Blender I/O v5.0.21",
		"version":"2.0"
	},
	"extensionsUsed":[
		"KHR_materials_specular"
	],
	"scene":0,
	"scenes":[
		{
			"name":"Scene",
			"nodes":[
				15
			]
		}
	],
	"nodes":[
		{
			"name":"Head",
			"rotation":[
				1.3552533773513706e-16,
				1.1641531294515062e-08,
				1.1641532182693481e-08,
				1
			],
			"translation":[
				1.7763568394002505e-15,
				1.2000000476837158,
				-5.293955920339377e-23
			]
		},
		{
			"name":"Arm:Left",
			"rotation":[
				-1,
				2.481541837659083e-23,
				7.549790126404332e-08,
				6.661339206542123e-16
			],
			"translation":[
				0.6000000238418579,
				0.9999998211860657,
				3.0370599368723106e-09
			]
		},
		{
			"name":"Arm:Right",
			"rotation":[
				-1,
				2.481541837659083e-23,
				7.549790126404332e-08,
				6.661339206542123e-16
			],
			"translation":[
				-0.6000000238418579,
				0.9999998211860657,
				-3.037059048693891e-09
			]
		},
		{
			"children":[
				0,
				1,
				2
			],
			"name":"Body",
			"rotation":[
				0.7071067690849304,
				0,
				-1.6463610919004168e-08,
				0.7071067690849304
			],
			"translation":[
				0,
				0,
				-2.9802322387695312e-08
			]
		},
		{
			"name":"Leg:Right",
			"rotation":[
				-0.7071067690849304,
				5.338507591545749e-08,
				-5.338507591545749e-08,
				0.7071067690849304
			],
			"translation":[
				-0.20000004768371582,
				-1.7881393432617188e-07,
				-2.9802322387695312e-08
			]
		},
		{
			"name":"Leg:Left",
			"rotation":[
				-0.7071067690849304,
				5.338507591545749e-08,
				-5.338507591545749e-08,
				0.7071067690849304
			],
			"translation":[
				0.20000004768371582,
				2.980232238769531e-07,
				-2.9802322387695312e-08
			]
		},
		{
			"children":[
				3,
				4,
				5
			],
			"name":"center",
			"translation":[
				0,
				0,
				1.6119829416275024
			]
		},
		{
			"children":[
				6
			],
			"name":"MAIN",
			"rotation":[
				-0.7071067690849304,
				0,
				0,
				0.7071067690849304
			],
			"translation":[
				0,
				-0.3926849365234375,
				0
			]
		},
		{
			"name":"neutral_bone",
			"rotation":[
				-0.7071067690849304,
				0,
				0,
				0.7071067690849304
			]
		},
		{
			"mesh":0,
			"name":"Boots",
			"skin":0
		},
		{
			"mesh":1,
			"name":"Chestplate",
			"skin":0
		},
		{
			"mesh":2,
			"name":"Helmet",
			"skin":0
		},
		{
			"mesh":3,
			"name":"Leggings",
			"skin":0
		},
		{
			"mesh":4,
			"name":"SlimPlayerInnerLayer",
			"skin":0
		},
		{
			"mesh":5,
			"name":"SlimPlayerOuterLayer",
			"skin":0
		},
		{
			"children":[
				9,
				10,
				11,
				12,
				13,
				14,
				7,
				8
			],
			"name":"SimpleSlimPlayer.arma",
			"scale":[
				0.6203539967536926,
				0.6203539967536926,
				0.6203539967536926
			],
			"translation":[
				0,
				-1,
				0
			]
		}
	],
	"materials":[
		{
			"alphaMode":"BLEND",
			"doubleSided":true,
			"extensions":{
				"KHR_materials_specular":{
					"specularFactor":0
				}
			},
			"name":"char_alpha.001",
			"pbrMetallicRoughness":{
				"baseColorFactor":[
					0.5,
					0.5,
					0.5,
					1
				],
				"baseColorTexture":{
					"index":0
				},
				"metallicFactor":0,
				"roughnessFactor":0.699999988079071
			}
		},
		{
			"alphaMode":"BLEND",
			"doubleSided":true,
			"extensions":{
				"KHR_materials_specular":{
					"specularFactor":0
				}
			},
			"name":"char_alpha.003",
			"pbrMetallicRoughness":{
				"baseColorFactor":[
					0.5,
					0.5,
					0.5,
					1
				],
				"baseColorTexture":{
					"index":1
				},
				"metallicFactor":0,
				"roughnessFactor":0.699999988079071
			}
		},
		{
			"alphaMode":"BLEND",
			"doubleSided":true,
			"extensions":{
				"KHR_materials_specular":{
					"specularFactor":0
				}
			},
			"name":"char_alpha.009",
			"pbrMetallicRoughness":{
				"baseColorFactor":[
					0.5,
					0.5,
					0.5,
					1
				],
				"baseColorTexture":{
					"index":2
				},
				"metallicFactor":0,
				"roughnessFactor":0.699999988079071
			}
		},
		{
			"alphaMode":"BLEND",
			"doubleSided":true,
			"extensions":{
				"KHR_materials_specular":{
					"specularFactor":0
				}
			},
			"name":"char_alpha.010",
			"pbrMetallicRoughness":{
				"baseColorFactor":[
					0.5,
					0.5,
					0.5,
					1
				],
				"baseColorTexture":{
					"index":3
				},
				"metallicFactor":0,
				"roughnessFactor":0.699999988079071
			}
		},
		{
			"alphaMode":"BLEND",
			"doubleSided":true,
			"extensions":{
				"KHR_materials_specular":{
					"specularFactor":0
				}
			},
			"name":"char.002",
			"pbrMetallicRoughness":{
				"baseColorFactor":[
					0.5,
					0.5,
					0.5,
					1
				],
				"baseColorTexture":{
					"index":4
				},
				"metallicFactor":0,
				"roughnessFactor":0.699999988079071
			}
		},
		{
			"alphaMode":"BLEND",
			"doubleSided":true,
			"extensions":{
				"KHR_materials_specular":{
					"specularFactor":0
				}
			},
			"name":"char_alpha.012",
			"pbrMetallicRoughness":{
				"baseColorFactor":[
					0.5,
					0.5,
					0.5,
					1
				],
				"baseColorTexture":{
					"index":5
				},
				"metallicFactor":0,
				"roughnessFactor":0.699999988079071
			}
		}
	],
	"meshes":[
		{
			"name":"Cube.006",
			"primitives":[
				{
					"attributes":{
						"POSITION":0,
						"NORMAL":1,
						"TEXCOORD_0":2,
						"COLOR_0":3,
						"COLOR_1":4,
						"JOINTS_0":5,
						"WEIGHTS_0":6
					},
					"indices":7,
					"material":0
				}
			]
		},
		{
			"name":"Cube.003",
			"primitives":[
				{
					"attributes":{
						"POSITION":9,
						"NORMAL":10,
						"TEXCOORD_0":11,
						"COLOR_0":12,
						"COLOR_1":13,
						"JOINTS_0":14,
						"WEIGHTS_0":15
					},
					"indices":16,
					"material":1
				}
			]
		},
		{
			"name":"Cube.001",
			"primitives":[
				{
					"attributes":{
						"POSITION":17,
						"NORMAL":18,
						"TEXCOORD_0":19,
						"COLOR_0":20,
						"COLOR_1":21,
						"JOINTS_0":22,
						"WEIGHTS_0":23
					},
					"indices":24,
					"material":2
				}
			]
		},
		{
			"name":"Cube.005",
			"primitives":[
				{
					"attributes":{
						"POSITION":25,
						"NORMAL":26,
						"TEXCOORD_0":27,
						"COLOR_0":28,
						"COLOR_1":29,
						"JOINTS_0":30,
						"WEIGHTS_0":31
					},
					"indices":32,
					"material":3
				}
			]
		},
		{
			"name":"Cube",
			"primitives":[
				{
					"attributes":{
						"POSITION":33,
						"NORMAL":34,
						"TEXCOORD_0":35,
						"JOINTS_0":36,
						"WEIGHTS_0":37
					},
					"indices":38,
					"material":4
				}
			]
		},
		{
			"name":"Cube.002",
			"primitives":[
				{
					"attributes":{
						"POSITION":39,
						"NORMAL":40,
						"TEXCOORD_0":41,
						"COLOR_0":42,
						"COLOR_1":43,
						"JOINTS_0":44,
						"WEIGHTS_0":45
					},
					"indices":46,
					"material":5
				}
			]
		}
	],
	"textures":[
		{
			"sampler":0,
			"source":0
		},
		{
			"sampler":0,
			"source":0
		},
		{
			"sampler":0,
			"source":0
		},
		{
			"sampler":0,
			"source":1
		},
		{
			"sampler":0,
			"source":2
		},
		{
			"sampler":0,
			"source":2
		}
	],
	"images":[
		{
			"mimeType":"image/png",
			"name":"diamond",
			"uri":"diamond.png"
		},
		{
			"mimeType":"image/png",
			"name":"diamond_leggings",
			"uri":"diamond_leggings.png"
		},
		{
			"mimeType":"image/png",
			"name":"alex2",
			"uri":"alex2.png"
		}
	],
	"skins":[
		{
			"inverseBindMatrices":8,
			"joints":[
				7,
				6,
				3,
				0,
				1,
				2,
				4,
				5,
				8
			],
			"name":"SimpleSlimPlayer.arma"
		}
	],
	"accessors":[
		{
			"bufferView":0,
			"componentType":5126,
			"count":48,
			"max":[
				0.31322693824768066,
				-0.0946202278137207,
				0.18915919959545135
			],
			"min":[
				-0.3132322430610657,
				-1.1370069980621338,
				-0.1891585737466812
			],
			"type":"VEC3"
		},
		{
			"bufferView":1,
			"componentType":5126,
			"count":48,
			"type":"VEC3"
		},
		{
			"bufferView":2,
			"componentType":5126,
			"count":48,
			"type":"VEC2"
		},
		{
			"bufferView":3,
			"componentType":5121,
			"count":48,
			"normalized":true,
			"type":"VEC4"
		},
		{
			"bufferView":4,
			"componentType":5123,
			"count":48,
			"normalized":true,
			"type":"VEC4"
		},
		{
			"bufferView":5,
			"componentType":5121,
			"count":48,
			"type":"VEC4"
		},
		{
			"bufferView":6,
			"componentType":5126,
			"count":48,
			"type":"VEC4"
		},
		{
			"bufferView":7,
			"componentType":5123,
			"count":72,
			"type":"SCALAR"
		},
		{
			"bufferView":8,
			"componentType":5126,
			"count":9,
			"type":"MAT4"
		},
		{
			"bufferView":9,
			"componentType":5126,
			"count":72,
			"max":[
				0.5586568117141724,
				0.6026543378829956,
				0.1875956654548645
			],
			"min":[
				-0.5585470795631409,
				-0.3450315296649933,
				-0.18759550154209137
			],
			"type":"VEC3"
		},
		{
			"bufferView":10,
			"componentType":5126,
			"count":72,
			"type":"VEC3"
		},
		{
			"bufferView":11,
			"componentType":5126,
			"count":72,
			"type":"VEC2"
		},
		{
			"bufferView":12,
			"componentType":5121,
			"count":72,
			"normalized":true,
			"type":"VEC4"
		},
		{
			"bufferView":13,
			"componentType":5123,
			"count":72,
			"normalized":true,
			"type":"VEC4"
		},
		{
			"bufferView":14,
			"componentType":5121,
			"count":72,
			"type":"VEC4"
		},
		{
			"bufferView":15,
			"componentType":5126,
			"count":72,
			"type":"VEC4"
		},
		{
			"bufferView":16,
			"componentType":5123,
			"count":108,
			"type":"SCALAR"
		},
		{
			"bufferView":17,
			"componentType":5126,
			"count":24,
			"max":[
				0.30000847578048706,
				1.0542364120483398,
				0.30146685242652893
			],
			"min":[
				-0.30503231287002563,
				0.44919538497924805,
				-0.3035740256309509
			],
			"type":"VEC3"
		},
		{
			"bufferView":18,
			"componentType":5126,
			"count":24,
			"type":"VEC3"
		},
		{
			"bufferView":19,
			"componentType":5126,
			"count":24,
			"type":"VEC2"
		},
		{
			"bufferView":20,
			"componentType":5121,
			"count":24,
			"normalized":true,
			"type":"VEC4"
		},
		{
			"bufferView":21,
			"componentType":5123,
			"count":24,
			"normalized":true,
			"type":"VEC4"
		},
		{
			"bufferView":22,
			"componentType":5121,
			"count":24,
			"type":"VEC4"
		},
		{
			"bufferView":23,
			"componentType":5126,
			"count":24,
			"type":"VEC4"
		},
		{
			"bufferView":24,
			"componentType":5123,
			"count":36,
			"type":"SCALAR"
		},
		{
			"bufferView":25,
			"componentType":5126,
			"count":72,
			"max":[
				0.28955185413360596,
				0.5609363317489624,
				0.15763269364833832
			],
			"min":[
				-0.28955191373825073,
				-1.050141453742981,
				-0.15763208270072937
			],
			"type":"VEC3"
		},
		{
			"bufferView":26,
			"componentType":5126,
			"count":72,
			"type":"VEC3"
		},
		{
			"bufferView":27,
			"componentType":5126,
			"count":72,
			"type":"VEC2"
		},
		{
			"bufferView":28,
			"componentType":5121,
			"count":72,
			"normalized":true,
			"type":"VEC4"
		},
		{
			"bufferView":29,
			"componentType":5123,
			"count":72,
			"normalized":true,
			"type":"VEC4"
		},
		{
			"bufferView":30,
			"componentType":5121,
			"count":72,
			"type":"VEC4"
		},
		{
			"bufferView":31,
			"componentType":5126,
			"count":72,
			"type":"VEC4"
		},
		{
			"bufferView":32,
			"componentType":5123,
			"count":108,
			"type":"SCALAR"
		},
		{
			"bufferView":33,
			"componentType":5126,
			"count":144,
			"max":[
				0.43436741828918457,
				0.9979740381240845,
				0.24814198911190033
			],
			"min":[
				-0.43425679206848145,
				-0.9880262613296509,
				-0.248141810297966
			],
			"type":"VEC3"
		},
		{
			"bufferView":34,
			"componentType":5126,
			"count":144,
			"type":"VEC3"
		},
		{
			"bufferView":35,
			"componentType":5126,
			"count":144,
			"type":"VEC2"
		},
		{
			"bufferView":36,
			"componentType":5121,
			"count":144,
			"type":"VEC4"
		},
		{
			"bufferView":37,
			"componentType":5126,
			"count":144,
			"type":"VEC4"
		},
		{
			"bufferView":38,
			"componentType":5123,
			"count":216,
			"type":"SCALAR"
		},
		{
			"bufferView":39,
			"componentType":5126,
			"count":144,
			"max":[
				0.46020740270614624,
				1.0267345905303955,
				0.27396494150161743
			],
			"min":[
				-0.4600975513458252,
				-1.0106570720672607,
				-0.2760721445083618
			],
			"type":"VEC3"
		},
		{
			"bufferView":40,
			"componentType":5126,
			"count":144,
			"type":"VEC3"
		},
		{
			"bufferView":41,
			"componentType":5126,
			"count":144,
			"type":"VEC2"
		},
		{
			"bufferView":42,
			"componentType":5121,
			"count":144,
			"normalized":true,
			"type":"VEC4"
		},
		{
			"bufferView":43,
			"componentType":5123,
			"count":144,
			"normalized":true,
			"type":"VEC4"
		},
		{
			"bufferView":44,
			"componentType":5121,
			"count":144,
			"type":"VEC4"
		},
		{
			"bufferView":45,
			"componentType":5126,
			"count":144,
			"type":"VEC4"
		},
		{
			"bufferView":46,
			"componentType":5123,
			"count":216,
			"type":"SCALAR"
		}
	],
	"bufferViews":[
		{
			"buffer":0,
			"byteLength":576,
			"byteOffset":0,
			"target":34962
		},
		{
			"buffer":0,
			"byteLength":576,
			"byteOffset":576,
			"target":34962
		},
		{
			"buffer":0,
			"byteLength":384,
			"byteOffset":1152,
			"target":34962
		},
		{
			"buffer":0,
			"byteLength":192,
			"byteOffset":1536,
			"target":34962
		},
		{
			"buffer":0,
			"byteLength":384,
			"byteOffset":1728,
			"target":34962
		},
		{
			"buffer":0,
			"byteLength":192,
			"byteOffset":2112,
			"target":34962
		},
		{
			"buffer":0,
			"byteLength":768,
			"byteOffset":2304,
			"target":34962
		},
		{
			"buffer":0,
			"byteLength":144,
			"byteOffset":3072,
			"target":34963
		},
		{
			"buffer":0,
			"byteLength":576,
			"byteOffset":3216
		},
		{
			"buffer":0,
			"byteLength":864,
			"byteOffset":3792,
			"target":34962
		},
		{
			"buffer":0,
			"byteLength":864,
			"byteOffset":4656,
			"target":34962
		},
		{
			"buffer":0,
			"byteLength":576,
			"byteOffset":5520,
			"target":34962
		},
		{
			"buffer":0,
			"byteLength":288,
			"byteOffset":6096,
			"target":34962
		},
		{
			"buffer":0,
			"byteLength":576,
			"byteOffset":6384,
			"target":34962
		},
		{
			"buffer":0,
			"byteLength":288,
			"byteOffset":6960,
			"target":34962
		},
		{
			"buffer":0,
			"byteLength":1152,
			"byteOffset":7248,
			"target":34962
		},
		{
			"buffer":0,
			"byteLength":216,
			"byteOffset":8400,
			"target":34963
		},
		{
			"buffer":0,
			"byteLength":288,
			"byteOffset":8616,
			"target":34962
		},
		{
			"buffer":0,
			"byteLength":288,
			"byteOffset":8904,
			"target":34962
		},
		{
			"buffer":0,
			"byteLength":192,
			"byteOffset":9192,
			"target":34962
		},
		{
			"buffer":0,
			"byteLength":96,
			"byteOffset":9384,
			"target":34962
		},
		{
			"buffer":0,
			"byteLength":192,
			"byteOffset":9480,
			"target":34962
		},
		{
			"buffer":0,
			"byteLength":96,
			"byteOffset":9672,
			"target":34962
		},
		{
			"buffer":0,
			"byteLength":384,
			"byteOffset":9768,
			"target":34962
		},
		{
			"buffer":0,
			"byteLength":72,
			"byteOffset":10152,
			"target":34963
		},
		{
			"buffer":0,
			"byteLength":864,
			"byteOffset":10224,
			"target":34962
		},
		{
			"buffer":0,
			"byteLength":864,
			"byteOffset":11088,
			"target":34962
		},
		{
			"buffer":0,
			"byteLength":576,
			"byteOffset":11952,
			"target":34962
		},
		{
			"buffer":0,
			"byteLength":288,
			"byteOffset":12528,
			"target":34962
		},
		{
			"buffer":0,
			"byteLength":576,
			"byteOffset":12816,
			"target":34962
		},
		{
			"buffer":0,
			"byteLength":288,
			"byteOffset":13392,
			"target":34962
		},
		{
			"buffer":0,
			"byteLength":1152,
			"byteOffset":13680,
			"target":34962
		},
		{
			"buffer":0,
			"byteLength":216,
			"byteOffset":14832,
			"target":34963
		},
		{
			"buffer":0,
			"byteLength":1728,
			"byteOffset":15048,
			"target":34962
		},
		{
			"buffer":0,
			"byteLength":1728,
			"byteOffset":16776,
			"target":34962
		},
		{
			"buffer":0,
			"byteLength":1152,
			"byteOffset":18504,
			"target":34962
		},
		{
			"buffer":0,
			"byteLength":576,
			"byteOffset":19656,
			"target":34962
		},
		{
			"buffer":0,
			"byteLength":2304,
			"byteOffset":20232,
			"target":34962
		},
		{
			"buffer":0,
			"byteLength":432,
			"byteOffset":22536,
			"target":34963
		},
		{
			"buffer":0,
			"byteLength":1728,
			"byteOffset":22968,
			"target":34962
		},
		{
			"buffer":0,
			"byteLength":1728,
			"byteOffset":24696,
			"target":34962
		},
		{
			"buffer":0,
			"byteLength":1152,
			"byteOffset":26424,
			"target":34962
		},
		{
			"buffer":0,
			"byteLength":576,
			"byteOffset":27576,
			"target":34962
		},
		{
			"buffer":0,
			"byteLength":1152,
			"byteOffset":28152,
			"target":34962
		},
		{
			"buffer":0,
			"byteLength":576,
			"byteOffset":29304,
			"target":34962
		},
		{
			"buffer":0,
			"byteLength":2304,
			"byteOffset":29880,
			"target":34962
		},
		{
			"buffer":0,
			"byteLength":432,
			"byteOffset":32184,
			"target":34963
		}
	],
	"samplers":[
		{
			"magFilter":9728,
			"minFilter":9984
		}
	],
	"buffers":[
		{
			"byteLength":32616,
			"uri":"Untitled.bin"
		}
	]
}
