{
	"asset":{
		"generator":"Khronos glTF Blender I/O v5.0.21",
		"version":"2.0"
	},
	"extensionsUsed":[
		"KHR_materials_specular"
	],
	"scene":0,
	"scenes":[
		{
			"name":"Scene",
			"nodes":[
				16
			]
		}
	],
	"nodes":[
		{
			"name":"Head",
			"rotation":[
				1.3552533773513706e-16,
				1.1641531294515062e-08,
				1.1641532182693481e-08,
				1
			],
			"translation":[
				1.7763568394002505e-15,
				1.2000000476837158,
				-5.293955920339377e-23
			]
		},
		{
			"name":"ArmLeft",
			"rotation":[
				-1,
				2.481541837659083e-23,
				7.549790126404332e-08,
				6.661339206542123e-16
			],
			"translation":[
				0.6000000238418579,
				0.9999998211860657,
				3.0370599368723106e-09
			]
		},
		{
			"name":"ArmRight",
			"rotation":[
				-1,
				2.481541837659083e-23,
				7.549790126404332e-08,
				6.661339206542123e-16
			],
			"translation":[
				-0.6000000238418579,
				0.9999998211860657,
				-3.037059048693891e-09
			]
		},
		{
			"children":[
				0,
				1,
				2
			],
			"name":"Body",
			"rotation":[
				0,
				-1.1641531294515062e-08,
				-1.1641531294515062e-08,
				1
			],
			"translation":[
				0,
				1.219298005104065,
				0
			]
		},
		{
			"name":"LegRight",
			"rotation":[
				1,
				0,
				7.549790126404332e-08,
				0
			],
			"translation":[
				-0.20000004768371582,
				1.219298005104065,
				1.6292068494294654e-07
			]
		},
		{
			"name":"LegLeft",
			"rotation":[
				1,
				0,
				7.549790126404332e-08,
				0
			],
			"translation":[
				0.20000004768371582,
				1.219298005104065,
				-3.1391647326017846e-07
			]
		},
		{
			"mesh":0,
			"name":"Boots",
			"skin":0
		},
		{
			"mesh":1,
			"name":"BootsGlint",
			"skin":0
		},
		{
			"mesh":2,
			"name":"Chestplate",
			"skin":0
		},
		{
			"mesh":3,
			"name":"ChestplateGlint",
			"skin":0
		},
		{
			"mesh":4,
			"name":"Helmet",
			"skin":0
		},
		{
			"mesh":5,
			"name":"HelmetGlint",
			"skin":0
		},
		{
			"mesh":6,
			"name":"Leggings",
			"skin":0
		},
		{
			"mesh":7,
			"name":"LeggingsGlint",
			"skin":0
		},
		{
			"mesh":8,
			"name":"PlayerLayer1",
			"skin":0
		},
		{
			"mesh":9,
			"name":"PlayerLayer2",
			"skin":0
		},
		{
			"children":[
				6,
				7,
				8,
				9,
				10,
				11,
				12,
				13,
				14,
				15,
				3,
				4,
				5
			],
			"name":"PlayerArma",
			"scale":[
				0.6203539967536926,
				0.6203539967536926,
				0.6203539967536926
			],
			"translation":[
				0,
				-1,
				0
			]
		}
	],
	"materials":[
		{
			"alphaMode":"BLEND",
			"doubleSided":true,
			"extensions":{
				"KHR_materials_specular":{
					"specularFactor":0
				}
			},
			"name":"char.011",
			"pbrMetallicRoughness":{
				"baseColorFactor":[
					0.5,
					0.5,
					0.5,
					1
				],
				"baseColorTexture":{
					"index":0
				},
				"metallicFactor":0,
				"roughnessFactor":0.699999988079071
			}
		},
		{
			"alphaMode":"BLEND",
			"doubleSided":true,
			"extensions":{
				"KHR_materials_specular":{
					"specularFactor":0
				}
			},
			"name":"char.012",
			"pbrMetallicRoughness":{
				"baseColorFactor":[
					0.5,
					0.5,
					0.5,
					1
				],
				"baseColorTexture":{
					"index":1
				},
				"metallicFactor":0,
				"roughnessFactor":0.699999988079071
			}
		},
		{
			"alphaMode":"BLEND",
			"doubleSided":true,
			"extensions":{
				"KHR_materials_specular":{
					"specularFactor":0
				}
			},
			"name":"char.013",
			"pbrMetallicRoughness":{
				"baseColorFactor":[
					0.5,
					0.5,
					0.5,
					1
				],
				"baseColorTexture":{
					"index":2
				},
				"metallicFactor":0,
				"roughnessFactor":0.699999988079071
			}
		},
		{
			"alphaMode":"BLEND",
			"doubleSided":true,
			"extensions":{
				"KHR_materials_specular":{
					"specularFactor":0
				}
			},
			"name":"char.014",
			"pbrMetallicRoughness":{
				"baseColorFactor":[
					0.5,
					0.5,
					0.5,
					1
				],
				"baseColorTexture":{
					"index":3
				},
				"metallicFactor":0,
				"roughnessFactor":0.699999988079071
			}
		},
		{
			"alphaMode":"BLEND",
			"doubleSided":true,
			"extensions":{
				"KHR_materials_specular":{
					"specularFactor":0
				}
			},
			"name":"char.003",
			"pbrMetallicRoughness":{
				"baseColorFactor":[
					0.5,
					0.5,
					0.5,
					1
				],
				"baseColorTexture":{
					"index":4
				},
				"metallicFactor":0,
				"roughnessFactor":0.699999988079071
			}
		}
	],
	"meshes":[
		{
			"name":"Cube.004",
			"primitives":[
				{
					"attributes":{
						"POSITION":0,
						"NORMAL":1,
						"TEXCOORD_0":2,
						"JOINTS_0":3,
						"WEIGHTS_0":4
					},
					"indices":5,
					"material":0
				}
			]
		},
		{
			"name":"Cube.009",
			"primitives":[
				{
					"attributes":{
						"POSITION":7,
						"NORMAL":8,
						"TEXCOORD_0":9,
						"JOINTS_0":10,
						"WEIGHTS_0":11
					},
					"indices":5,
					"material":0
				}
			]
		},
		{
			"name":"Cube.002",
			"primitives":[
				{
					"attributes":{
						"POSITION":12,
						"NORMAL":13,
						"TEXCOORD_0":14,
						"JOINTS_0":15,
						"WEIGHTS_0":16
					},
					"indices":17,
					"material":1
				}
			]
		},
		{
			"name":"Cube.007",
			"primitives":[
				{
					"attributes":{
						"POSITION":18,
						"NORMAL":19,
						"TEXCOORD_0":20,
						"JOINTS_0":21,
						"WEIGHTS_0":22
					},
					"indices":17,
					"material":1
				}
			]
		},
		{
			"name":"Cube.001",
			"primitives":[
				{
					"attributes":{
						"POSITION":23,
						"NORMAL":24,
						"TEXCOORD_0":25,
						"JOINTS_0":26,
						"WEIGHTS_0":27
					},
					"indices":28,
					"material":2
				}
			]
		},
		{
			"name":"Cube.005",
			"primitives":[
				{
					"attributes":{
						"POSITION":29,
						"NORMAL":30,
						"TEXCOORD_0":31,
						"JOINTS_0":32,
						"WEIGHTS_0":33
					},
					"indices":28,
					"material":2
				}
			]
		},
		{
			"name":"Cube.003",
			"primitives":[
				{
					"attributes":{
						"POSITION":34,
						"NORMAL":35,
						"TEXCOORD_0":36,
						"JOINTS_0":37,
						"WEIGHTS_0":38
					},
					"indices":39,
					"material":3
				}
			]
		},
		{
			"name":"Cube.008",
			"primitives":[
				{
					"attributes":{
						"POSITION":40,
						"NORMAL":41,
						"TEXCOORD_0":42,
						"JOINTS_0":43,
						"WEIGHTS_0":44
					},
					"indices":39,
					"material":3
				}
			]
		},
		{
			"name":"Cube.011",
			"primitives":[
				{
					"attributes":{
						"POSITION":45,
						"NORMAL":46,
						"TEXCOORD_0":47,
						"JOINTS_0":48,
						"WEIGHTS_0":49
					},
					"indices":50,
					"material":4
				}
			]
		},
		{
			"name":"Cube.006",
			"primitives":[
				{
					"attributes":{
						"POSITION":51,
						"NORMAL":52,
						"TEXCOORD_0":53,
						"COLOR_0":54,
						"COLOR_1":55,
						"JOINTS_0":56,
						"WEIGHTS_0":57
					},
					"indices":58,
					"material":4
				}
			]
		}
	],
	"textures":[
		{
			"sampler":0,
			"source":0
		},
		{
			"sampler":0,
			"source":0
		},
		{
			"sampler":0,
			"source":0
		},
		{
			"sampler":0,
			"source":1
		},
		{
			"sampler":0,
			"source":2
		}
	],
	"images":[
		{
			"mimeType":"image/png",
			"name":"diamond",
			"uri":"diamond.png"
		},
		{
			"mimeType":"image/png",
			"name":"diamond_leggings",
			"uri":"diamond_leggings.png"
		},
		{
			"mimeType":"image/png",
			"name":"alex23",
			"uri":"alex23.png"
		}
	],
	"skins":[
		{
			"inverseBindMatrices":6,
			"joints":[
				3,
				0,
				1,
				2,
				4,
				5
			],
			"name":"PlayerArma"
		}
	],
	"accessors":[
		{
			"bufferView":0,
			"componentType":5126,
			"count":48,
			"max":[
				0.2942878007888794,
				-0.160113126039505,
				0.16401612758636475
			],
			"min":[
				-0.29429250955581665,
				-1.0715138912200928,
				-0.1640155166387558
			],
			"type":"VEC3"
		},
		{
			"bufferView":1,
			"componentType":5126,
			"count":48,
			"type":"VEC3"
		},
		{
			"bufferView":2,
			"componentType":5126,
			"count":48,
			"type":"VEC2"
		},
		{
			"bufferView":3,
			"componentType":5121,
			"count":48,
			"type":"VEC4"
		},
		{
			"bufferView":4,
			"componentType":5126,
			"count":48,
			"type":"VEC4"
		},
		{
			"bufferView":5,
			"componentType":5123,
			"count":72,
			"type":"SCALAR"
		},
		{
			"bufferView":6,
			"componentType":5126,
			"count":6,
			"type":"MAT4"
		},
		{
			"bufferView":7,
			"componentType":5126,
			"count":48,
			"max":[
				0.2945820689201355,
				-0.15964549779891968,
				0.16418012976646423
			],
			"min":[
				-0.29458674788475037,
				-1.0719575881958008,
				-0.16417951881885529
			],
			"type":"VEC3"
		},
		{
			"bufferView":8,
			"componentType":5126,
			"count":48,
			"type":"VEC3"
		},
		{
			"bufferView":9,
			"componentType":5126,
			"count":48,
			"type":"VEC2"
		},
		{
			"bufferView":10,
			"componentType":5121,
			"count":48,
			"type":"VEC4"
		},
		{
			"bufferView":11,
			"componentType":5126,
			"count":48,
			"type":"VEC4"
		},
		{
			"bufferView":12,
			"componentType":5126,
			"count":72,
			"max":[
				0.558438777923584,
				0.5606046319007874,
				0.18610692024230957
			],
			"min":[
				-0.5583282113075256,
				-0.3030283451080322,
				-0.18610656261444092
			],
			"type":"VEC3"
		},
		{
			"bufferView":13,
			"componentType":5126,
			"count":72,
			"type":"VEC3"
		},
		{
			"bufferView":14,
			"componentType":5126,
			"count":72,
			"type":"VEC2"
		},
		{
			"bufferView":15,
			"componentType":5121,
			"count":72,
			"type":"VEC4"
		},
		{
			"bufferView":16,
			"componentType":5126,
			"count":72,
			"type":"VEC4"
		},
		{
			"bufferView":17,
			"componentType":5123,
			"count":108,
			"type":"SCALAR"
		},
		{
			"bufferView":18,
			"componentType":5126,
			"count":72,
			"max":[
				0.558438777923584,
				0.5606046319007874,
				0.18610692024230957
			],
			"min":[
				-0.5583282113075256,
				-0.3030283451080322,
				-0.18610656261444092
			],
			"type":"VEC3"
		},
		{
			"bufferView":19,
			"componentType":5126,
			"count":72,
			"type":"VEC3"
		},
		{
			"bufferView":20,
			"componentType":5126,
			"count":72,
			"type":"VEC2"
		},
		{
			"bufferView":21,
			"componentType":5121,
			"count":72,
			"type":"VEC4"
		},
		{
			"bufferView":22,
			"componentType":5126,
			"count":72,
			"type":"VEC4"
		},
		{
			"bufferView":23,
			"componentType":5126,
			"count":24,
			"max":[
				0.3101772367954254,
				1.0600097179412842,
				0.3101775050163269
			],
			"min":[
				-0.3101775646209717,
				0.43965548276901245,
				-0.3101772964000702
			],
			"type":"VEC3"
		},
		{
			"bufferView":24,
			"componentType":5126,
			"count":24,
			"type":"VEC3"
		},
		{
			"bufferView":25,
			"componentType":5126,
			"count":24,
			"type":"VEC2"
		},
		{
			"bufferView":26,
			"componentType":5121,
			"count":24,
			"type":"VEC4"
		},
		{
			"bufferView":27,
			"componentType":5126,
			"count":24,
			"type":"VEC4"
		},
		{
			"bufferView":28,
			"componentType":5123,
			"count":36,
			"type":"SCALAR"
		},
		{
			"bufferView":29,
			"componentType":5126,
			"count":24,
			"max":[
				0.3101772367954254,
				1.0600097179412842,
				0.3101775050163269
			],
			"min":[
				-0.3101775646209717,
				0.43965548276901245,
				-0.3101772964000702
			],
			"type":"VEC3"
		},
		{
			"bufferView":30,
			"componentType":5126,
			"count":24,
			"type":"VEC3"
		},
		{
			"bufferView":31,
			"componentType":5126,
			"count":24,
			"type":"VEC2"
		},
		{
			"bufferView":32,
			"componentType":5121,
			"count":24,
			"type":"VEC4"
		},
		{
			"bufferView":33,
			"componentType":5126,
			"count":24,
			"type":"VEC4"
		},
		{
			"bufferView":34,
			"componentType":5126,
			"count":72,
			"max":[
				0.2833784520626068,
				0.5363109707832336,
				0.1418312042951584
			],
			"min":[
				-0.2833777666091919,
				-1.023386836051941,
				-0.14183060824871063
			],
			"type":"VEC3"
		},
		{
			"bufferView":35,
			"componentType":5126,
			"count":72,
			"type":"VEC3"
		},
		{
			"bufferView":36,
			"componentType":5126,
			"count":72,
			"type":"VEC2"
		},
		{
			"bufferView":37,
			"componentType":5121,
			"count":72,
			"type":"VEC4"
		},
		{
			"bufferView":38,
			"componentType":5126,
			"count":72,
			"type":"VEC4"
		},
		{
			"bufferView":39,
			"componentType":5123,
			"count":108,
			"type":"SCALAR"
		},
		{
			"bufferView":40,
			"componentType":5126,
			"count":72,
			"max":[
				0.283661812543869,
				0.537475049495697,
				0.14197303354740143
			],
			"min":[
				-0.2836611568927765,
				-1.0237823724746704,
				-0.14197243750095367
			],
			"type":"VEC3"
		},
		{
			"bufferView":41,
			"componentType":5126,
			"count":72,
			"type":"VEC3"
		},
		{
			"bufferView":42,
			"componentType":5126,
			"count":72,
			"type":"VEC2"
		},
		{
			"bufferView":43,
			"componentType":5121,
			"count":72,
			"type":"VEC4"
		},
		{
			"bufferView":44,
			"componentType":5126,
			"count":72,
			"type":"VEC4"
		},
		{
			"bufferView":45,
			"componentType":5126,
			"count":144,
			"max":[
				0.43436795473098755,
				0.9979740381240845,
				0.24814198911190033
			],
			"min":[
				-0.43425649404525757,
				-0.98802649974823,
				-0.248141810297966
			],
			"type":"VEC3"
		},
		{
			"bufferView":46,
			"componentType":5126,
			"count":144,
			"type":"VEC3"
		},
		{
			"bufferView":47,
			"componentType":5126,
			"count":144,
			"type":"VEC2"
		},
		{
			"bufferView":48,
			"componentType":5121,
			"count":144,
			"type":"VEC4"
		},
		{
			"bufferView":49,
			"componentType":5126,
			"count":144,
			"type":"VEC4"
		},
		{
			"bufferView":50,
			"componentType":5123,
			"count":216,
			"type":"SCALAR"
		},
		{
			"bufferView":51,
			"componentType":5126,
			"count":144,
			"max":[
				0.4520481824874878,
				1.033210039138794,
				0.2833781838417053
			],
			"min":[
				-0.45193660259246826,
				-1.0055205821990967,
				-0.2833779752254486
			],
			"type":"VEC3"
		},
		{
			"bufferView":52,
			"componentType":5126,
			"count":144,
			"type":"VEC3"
		},
		{
			"bufferView":53,
			"componentType":5126,
			"count":144,
			"type":"VEC2"
		},
		{
			"bufferView":54,
			"componentType":5121,
			"count":144,
			"normalized":true,
			"type":"VEC4"
		},
		{
			"bufferView":55,
			"componentType":5123,
			"count":144,
			"normalized":true,
			"type":"VEC4"
		},
		{
			"bufferView":56,
			"componentType":5121,
			"count":144,
			"type":"VEC4"
		},
		{
			"bufferView":57,
			"componentType":5126,
			"count":144,
			"type":"VEC4"
		},
		{
			"bufferView":58,
			"componentType":5123,
			"count":216,
			"type":"SCALAR"
		}
	],
	"bufferViews":[
		{
			"buffer":0,
			"byteLength":576,
			"byteOffset":0,
			"target":34962
		},
		{
			"buffer":0,
			"byteLength":576,
			"byteOffset":576,
			"target":34962
		},
		{
			"buffer":0,
			"byteLength":384,
			"byteOffset":1152,
			"target":34962
		},
		{
			"buffer":0,
			"byteLength":192,
			"byteOffset":1536,
			"target":34962
		},
		{
			"buffer":0,
			"byteLength":768,
			"byteOffset":1728,
			"target":34962
		},
		{
			"buffer":0,
			"byteLength":144,
			"byteOffset":2496,
			"target":34963
		},
		{
			"buffer":0,
			"byteLength":384,
			"byteOffset":2640
		},
		{
			"buffer":0,
			"byteLength":576,
			"byteOffset":3024,
			"target":34962
		},
		{
			"buffer":0,
			"byteLength":576,
			"byteOffset":3600,
			"target":34962
		},
		{
			"buffer":0,
			"byteLength":384,
			"byteOffset":4176,
			"target":34962
		},
		{
			"buffer":0,
			"byteLength":192,
			"byteOffset":4560,
			"target":34962
		},
		{
			"buffer":0,
			"byteLength":768,
			"byteOffset":4752,
			"target":34962
		},
		{
			"buffer":0,
			"byteLength":864,
			"byteOffset":5520,
			"target":34962
		},
		{
			"buffer":0,
			"byteLength":864,
			"byteOffset":6384,
			"target":34962
		},
		{
			"buffer":0,
			"byteLength":576,
			"byteOffset":7248,
			"target":34962
		},
		{
			"buffer":0,
			"byteLength":288,
			"byteOffset":7824,
			"target":34962
		},
		{
			"buffer":0,
			"byteLength":1152,
			"byteOffset":8112,
			"target":34962
		},
		{
			"buffer":0,
			"byteLength":216,
			"byteOffset":9264,
			"target":34963
		},
		{
			"buffer":0,
			"byteLength":864,
			"byteOffset":9480,
			"target":34962
		},
		{
			"buffer":0,
			"byteLength":864,
			"byteOffset":10344,
			"target":34962
		},
		{
			"buffer":0,
			"byteLength":576,
			"byteOffset":11208,
			"target":34962
		},
		{
			"buffer":0,
			"byteLength":288,
			"byteOffset":11784,
			"target":34962
		},
		{
			"buffer":0,
			"byteLength":1152,
			"byteOffset":12072,
			"target":34962
		},
		{
			"buffer":0,
			"byteLength":288,
			"byteOffset":13224,
			"target":34962
		},
		{
			"buffer":0,
			"byteLength":288,
			"byteOffset":13512,
			"target":34962
		},
		{
			"buffer":0,
			"byteLength":192,
			"byteOffset":13800,
			"target":34962
		},
		{
			"buffer":0,
			"byteLength":96,
			"byteOffset":13992,
			"target":34962
		},
		{
			"buffer":0,
			"byteLength":384,
			"byteOffset":14088,
			"target":34962
		},
		{
			"buffer":0,
			"byteLength":72,
			"byteOffset":14472,
			"target":34963
		},
		{
			"buffer":0,
			"byteLength":288,
			"byteOffset":14544,
			"target":34962
		},
		{
			"buffer":0,
			"byteLength":288,
			"byteOffset":14832,
			"target":34962
		},
		{
			"buffer":0,
			"byteLength":192,
			"byteOffset":15120,
			"target":34962
		},
		{
			"buffer":0,
			"byteLength":96,
			"byteOffset":15312,
			"target":34962
		},
		{
			"buffer":0,
			"byteLength":384,
			"byteOffset":15408,
			"target":34962
		},
		{
			"buffer":0,
			"byteLength":864,
			"byteOffset":15792,
			"target":34962
		},
		{
			"buffer":0,
			"byteLength":864,
			"byteOffset":16656,
			"target":34962
		},
		{
			"buffer":0,
			"byteLength":576,
			"byteOffset":17520,
			"target":34962
		},
		{
			"buffer":0,
			"byteLength":288,
			"byteOffset":18096,
			"target":34962
		},
		{
			"buffer":0,
			"byteLength":1152,
			"byteOffset":18384,
			"target":34962
		},
		{
			"buffer":0,
			"byteLength":216,
			"byteOffset":19536,
			"target":34963
		},
		{
			"buffer":0,
			"byteLength":864,
			"byteOffset":19752,
			"target":34962
		},
		{
			"buffer":0,
			"byteLength":864,
			"byteOffset":20616,
			"target":34962
		},
		{
			"buffer":0,
			"byteLength":576,
			"byteOffset":21480,
			"target":34962
		},
		{
			"buffer":0,
			"byteLength":288,
			"byteOffset":22056,
			"target":34962
		},
		{
			"buffer":0,
			"byteLength":1152,
			"byteOffset":22344,
			"target":34962
		},
		{
			"buffer":0,
			"byteLength":1728,
			"byteOffset":23496,
			"target":34962
		},
		{
			"buffer":0,
			"byteLength":1728,
			"byteOffset":25224,
			"target":34962
		},
		{
			"buffer":0,
			"byteLength":1152,
			"byteOffset":26952,
			"target":34962
		},
		{
			"buffer":0,
			"byteLength":576,
			"byteOffset":28104,
			"target":34962
		},
		{
			"buffer":0,
			"byteLength":2304,
			"byteOffset":28680,
			"target":34962
		},
		{
			"buffer":0,
			"byteLength":432,
			"byteOffset":30984,
			"target":34963
		},
		{
			"buffer":0,
			"byteLength":1728,
			"byteOffset":31416,
			"target":34962
		},
		{
			"buffer":0,
			"byteLength":1728,
			"byteOffset":33144,
			"target":34962
		},
		{
			"buffer":0,
			"byteLength":1152,
			"byteOffset":34872,
			"target":34962
		},
		{
			"buffer":0,
			"byteLength":576,
			"byteOffset":36024,
			"target":34962
		},
		{
			"buffer":0,
			"byteLength":1152,
			"byteOffset":36600,
			"target":34962
		},
		{
			"buffer":0,
			"byteLength":576,
			"byteOffset":37752,
			"target":34962
		},
		{
			"buffer":0,
			"byteLength":2304,
			"byteOffset":38328,
			"target":34962
		},
		{
			"buffer":0,
			"byteLength":432,
			"byteOffset":40632,
			"target":34963
		}
	],
	"samplers":[
		{
			"magFilter":9728,
			"minFilter":9984
		}
	],
	"buffers":[
		{
			"byteLength":41064,
			"uri":"Untitled.bin"
		}
	]
}
