{
	"asset":{
		"generator":"Khronos glTF Blender I/O v5.0.21",
		"version":"2.0"
	},
	"extensionsUsed":[
		"KHR_materials_specular"
	],
	"scene":0,
	"scenes":[
		{
			"name":"Scene",
			"nodes":[
				10
			]
		}
	],
	"nodes":[
		{
			"name":"Head",
			"rotation":[
				1.3552533773513706e-16,
				1.1641531294515062e-08,
				1.1641532182693481e-08,
				1
			],
			"translation":[
				1.7763568394002505e-15,
				1.2000000476837158,
				-5.293955920339377e-23
			]
		},
		{
			"name":"Arm:Left",
			"rotation":[
				-1,
				2.481541837659083e-23,
				7.549790126404332e-08,
				6.661339206542123e-16
			],
			"translation":[
				0.6000000238418579,
				0.9999998211860657,
				3.0370599368723106e-09
			]
		},
		{
			"name":"Arm:Right",
			"rotation":[
				-1,
				2.481541837659083e-23,
				7.549790126404332e-08,
				6.661339206542123e-16
			],
			"translation":[
				-0.6000000238418579,
				0.9999998211860657,
				-3.037059048693891e-09
			]
		},
		{
			"children":[
				0,
				1,
				2
			],
			"name":"Body",
			"rotation":[
				0.7071067690849304,
				0,
				-1.6463610919004168e-08,
				0.7071067690849304
			],
			"translation":[
				0,
				0,
				-2.9802322387695312e-08
			]
		},
		{
			"name":"Leg:Right",
			"rotation":[
				-0.7071067690849304,
				5.338507591545749e-08,
				-5.338507591545749e-08,
				0.7071067690849304
			],
			"translation":[
				-0.20000004768371582,
				-1.7881393432617188e-07,
				-2.9802322387695312e-08
			]
		},
		{
			"name":"Leg:Left",
			"rotation":[
				-0.7071067690849304,
				5.338507591545749e-08,
				-5.338507591545749e-08,
				0.7071067690849304
			],
			"translation":[
				0.20000004768371582,
				2.980232238769531e-07,
				-2.9802322387695312e-08
			]
		},
		{
			"children":[
				3,
				4,
				5
			],
			"name":"center",
			"translation":[
				0,
				0,
				1.6119829416275024
			]
		},
		{
			"children":[
				6
			],
			"name":"MAIN",
			"rotation":[
				-0.7071067690849304,
				0,
				0,
				0.7071067690849304
			],
			"translation":[
				0,
				-0.3926849365234375,
				0
			]
		},
		{
			"mesh":0,
			"name":"SlimPlayerInnerLayer",
			"skin":0
		},
		{
			"mesh":1,
			"name":"SlimPlayerOuterLayer",
			"skin":0
		},
		{
			"children":[
				8,
				9,
				7
			],
			"name":"SimpleSlimPlayer.arma",
			"scale":[
				0.6203539967536926,
				0.6203539967536926,
				0.6203539967536926
			],
			"translation":[
				0,
				-1,
				0
			]
		}
	],
	"materials":[
		{
			"alphaMode":"BLEND",
			"doubleSided":true,
			"extensions":{
				"KHR_materials_specular":{
					"specularFactor":0
				}
			},
			"name":"char.016",
			"pbrMetallicRoughness":{
				"baseColorFactor":[
					0.5,
					0.5,
					0.5,
					1
				],
				"baseColorTexture":{
					"index":0
				},
				"metallicFactor":0,
				"roughnessFactor":0.699999988079071
			}
		},
		{
			"alphaMode":"BLEND",
			"doubleSided":true,
			"extensions":{
				"KHR_materials_specular":{
					"specularFactor":0
				}
			},
			"name":"char_alpha.018",
			"pbrMetallicRoughness":{
				"baseColorFactor":[
					0.5,
					0.5,
					0.5,
					1
				],
				"baseColorTexture":{
					"index":1
				},
				"metallicFactor":0,
				"roughnessFactor":0.699999988079071
			}
		}
	],
	"meshes":[
		{
			"name":"Cube",
			"primitives":[
				{
					"attributes":{
						"POSITION":0,
						"NORMAL":1,
						"TEXCOORD_0":2,
						"JOINTS_0":3,
						"WEIGHTS_0":4
					},
					"indices":5,
					"material":0
				}
			]
		},
		{
			"name":"Cube.002",
			"primitives":[
				{
					"attributes":{
						"POSITION":7,
						"NORMAL":8,
						"TEXCOORD_0":9,
						"COLOR_0":10,
						"COLOR_1":11,
						"JOINTS_0":12,
						"WEIGHTS_0":13
					},
					"indices":14,
					"material":1
				}
			]
		}
	],
	"textures":[
		{
			"sampler":0,
			"source":0
		},
		{
			"sampler":0,
			"source":0
		}
	],
	"images":[
		{
			"mimeType":"image/png",
			"name":"alex",
			"uri":"alex.png"
		}
	],
	"skins":[
		{
			"inverseBindMatrices":6,
			"joints":[
				7,
				6,
				3,
				0,
				1,
				2,
				4,
				5
			],
			"name":"SimpleSlimPlayer.arma"
		}
	],
	"accessors":[
		{
			"bufferView":0,
			"componentType":5126,
			"count":144,
			"max":[
				0.43436741828918457,
				0.9979740381240845,
				0.24814198911190033
			],
			"min":[
				-0.43425679206848145,
				-0.9880262613296509,
				-0.248141810297966
			],
			"type":"VEC3"
		},
		{
			"bufferView":1,
			"componentType":5126,
			"count":144,
			"type":"VEC3"
		},
		{
			"bufferView":2,
			"componentType":5126,
			"count":144,
			"type":"VEC2"
		},
		{
			"bufferView":3,
			"componentType":5121,
			"count":144,
			"type":"VEC4"
		},
		{
			"bufferView":4,
			"componentType":5126,
			"count":144,
			"type":"VEC4"
		},
		{
			"bufferView":5,
			"componentType":5123,
			"count":216,
			"type":"SCALAR"
		},
		{
			"bufferView":6,
			"componentType":5126,
			"count":8,
			"type":"MAT4"
		},
		{
			"bufferView":7,
			"componentType":5126,
			"count":144,
			"max":[
				0.46020740270614624,
				1.0267345905303955,
				0.27396494150161743
			],
			"min":[
				-0.4600975513458252,
				-1.0106570720672607,
				-0.2760721445083618
			],
			"type":"VEC3"
		},
		{
			"bufferView":8,
			"componentType":5126,
			"count":144,
			"type":"VEC3"
		},
		{
			"bufferView":9,
			"componentType":5126,
			"count":144,
			"type":"VEC2"
		},
		{
			"bufferView":10,
			"componentType":5121,
			"count":144,
			"normalized":true,
			"type":"VEC4"
		},
		{
			"bufferView":11,
			"componentType":5123,
			"count":144,
			"normalized":true,
			"type":"VEC4"
		},
		{
			"bufferView":12,
			"componentType":5121,
			"count":144,
			"type":"VEC4"
		},
		{
			"bufferView":13,
			"componentType":5126,
			"count":144,
			"type":"VEC4"
		},
		{
			"bufferView":14,
			"componentType":5123,
			"count":216,
			"type":"SCALAR"
		}
	],
	"bufferViews":[
		{
			"buffer":0,
			"byteLength":1728,
			"byteOffset":0,
			"target":34962
		},
		{
			"buffer":0,
			"byteLength":1728,
			"byteOffset":1728,
			"target":34962
		},
		{
			"buffer":0,
			"byteLength":1152,
			"byteOffset":3456,
			"target":34962
		},
		{
			"buffer":0,
			"byteLength":576,
			"byteOffset":4608,
			"target":34962
		},
		{
			"buffer":0,
			"byteLength":2304,
			"byteOffset":5184,
			"target":34962
		},
		{
			"buffer":0,
			"byteLength":432,
			"byteOffset":7488,
			"target":34963
		},
		{
			"buffer":0,
			"byteLength":512,
			"byteOffset":7920
		},
		{
			"buffer":0,
			"byteLength":1728,
			"byteOffset":8432,
			"target":34962
		},
		{
			"buffer":0,
			"byteLength":1728,
			"byteOffset":10160,
			"target":34962
		},
		{
			"buffer":0,
			"byteLength":1152,
			"byteOffset":11888,
			"target":34962
		},
		{
			"buffer":0,
			"byteLength":576,
			"byteOffset":13040,
			"target":34962
		},
		{
			"buffer":0,
			"byteLength":1152,
			"byteOffset":13616,
			"target":34962
		},
		{
			"buffer":0,
			"byteLength":576,
			"byteOffset":14768,
			"target":34962
		},
		{
			"buffer":0,
			"byteLength":2304,
			"byteOffset":15344,
			"target":34962
		},
		{
			"buffer":0,
			"byteLength":432,
			"byteOffset":17648,
			"target":34963
		}
	],
	"samplers":[
		{
			"magFilter":9728,
			"minFilter":9984
		}
	],
	"buffers":[
		{
			"byteLength":18080,
			"uri":"SlimMinecraftCharacter.bin"
		}
	]
}
