{
	"asset":{
		"generator":"Khronos glTF Blender I/O v4.5.51",
		"version":"2.0"
	},
	"extensionsUsed":[
		"KHR_materials_specular"
	],
	"scene":0,
	"scenes":[
		{
			"name":"Scene",
			"nodes":[
				15
			]
		}
	],
	"nodes":[
		{
			"name":"Head",
			"rotation":[
				5.421009803636338e-16,
				2.3283064365386963e-08,
				2.3283062589030123e-08,
				1
			],
			"translation":[
				3.6637359812630166e-15,
				0.6000000238418579,
				-3.5403330217269584e-22
			]
		},
		{
			"name":"Arm:Left:Lower",
			"rotation":[
				-3.772946903767829e-15,
				5.221483689865636e-08,
				-2.9802322387695312e-08,
				1
			],
			"translation":[
				1.0970867547754892e-09,
				0.39999985694885254,
				1.5571616533097826e-15
			]
		},
		{
			"children":[
				1
			],
			"name":"Arm:Left:Upper",
			"rotation":[
				-1,
				5.1285197978287716e-23,
				7.549790126404332e-08,
				2.2204464727667867e-15
			],
			"translation":[
				0.6000000238418579,
				0.3999999165534973,
				-1.0932780902805916e-08
			]
		},
		{
			"name":"Arm:Right:Lower",
			"rotation":[
				-3.772946480251355e-15,
				5.221483689865636e-08,
				-2.9802322387695312e-08,
				1
			],
			"translation":[
				1.097090307489168e-09,
				0.39999985694885254,
				1.5571616533097826e-15
			]
		},
		{
			"children":[
				3
			],
			"name":"Arm:Right:Upper",
			"rotation":[
				-1,
				5.1285197978287716e-23,
				7.549790126404332e-08,
				2.220447108041497e-15
			],
			"translation":[
				-0.6000000238418579,
				0.39999985694885254,
				1.0932782679162756e-08
			]
		},
		{
			"children":[
				0,
				2,
				4
			],
			"name":"Chest",
			"rotation":[
				-5.421009803636338e-16,
				-2.3283064365386963e-08,
				-2.3283060812673284e-08,
				1
			],
			"translation":[
				0,
				0.6000000238418579,
				0
			]
		},
		{
			"children":[
				5
			],
			"name":"Body",
			"rotation":[
				0.7071067690849304,
				0,
				0,
				0.7071067690849304
			]
		},
		{
			"name":"Leg:Right:Lower",
			"rotation":[
				0,
				-7.549790126404332e-08,
				0,
				1
			],
			"translation":[
				2.7006175074006933e-14,
				0.5999997854232788,
				7.105427357601002e-15
			]
		},
		{
			"children":[
				7
			],
			"name":"Leg:Right:Upper",
			"rotation":[
				-0.7071067690849304,
				5.338507591545749e-08,
				-5.338507591545749e-08,
				0.7071067690849304
			],
			"translation":[
				-0.20000004768371582,
				-1.7881393432617188e-07,
				0
			]
		},
		{
			"name":"Leg:Left:Lower",
			"rotation":[
				0,
				-7.549790126404332e-08,
				0,
				1
			],
			"translation":[
				-4.499178807293447e-14,
				0.5999997854232788,
				-7.105427357601002e-15
			]
		},
		{
			"children":[
				9
			],
			"name":"Leg:Left:Upper",
			"rotation":[
				-0.7071067690849304,
				5.338507591545749e-08,
				-5.338507591545749e-08,
				0.7071067690849304
			],
			"translation":[
				0.20000004768371582,
				2.980232238769531e-07,
				0
			]
		},
		{
			"children":[
				6,
				8,
				10
			],
			"name":"center",
			"translation":[
				0,
				0,
				1.6119829416275024
			]
		},
		{
			"children":[
				11
			],
			"name":"MAIN",
			"rotation":[
				-0.7071067690849304,
				0,
				0,
				0.7071067690849304
			],
			"translation":[
				0,
				-0.39268505573272705,
				0
			]
		},
		{
			"mesh":0,
			"name":"SimpleSlimPlayer.Body.Layer1",
			"skin":0
		},
		{
			"mesh":1,
			"name":"SimpleSlimPlayer.Body.Layer2",
			"skin":0
		},
		{
			"children":[
				13,
				14,
				12
			],
			"name":"SimpleSlimPlayer.arma",
			"scale":[
				0.6203539967536926,
				0.6203539967536926,
				0.6203539967536926
			],
			"translation":[
				0,
				-1.1432242393493652,
				0
			]
		}
	],
	"materials":[
		{
			"alphaMode":"BLEND",
			"doubleSided":true,
			"extensions":{
				"KHR_materials_specular":{
					"specularFactor":0
				}
			},
			"name":"char.003",
			"pbrMetallicRoughness":{
				"baseColorFactor":[
					0.5,
					0.5,
					0.5,
					1
				],
				"baseColorTexture":{
					"index":0
				},
				"metallicFactor":0,
				"roughnessFactor":0.699999988079071
			}
		},
		{
			"alphaMode":"BLEND",
			"doubleSided":true,
			"extensions":{
				"KHR_materials_specular":{
					"specularFactor":0
				}
			},
			"name":"char_alpha.004",
			"pbrMetallicRoughness":{
				"baseColorFactor":[
					0.5,
					0.5,
					0.5,
					1
				],
				"baseColorTexture":{
					"index":1
				},
				"metallicFactor":0,
				"roughnessFactor":0.699999988079071
			}
		}
	],
	"meshes":[
		{
			"name":"Cube.001",
			"primitives":[
				{
					"attributes":{
						"POSITION":0,
						"NORMAL":1,
						"TEXCOORD_0":2,
						"JOINTS_0":3,
						"WEIGHTS_0":4
					},
					"indices":5,
					"material":0
				}
			]
		},
		{
			"name":"Cube.005",
			"primitives":[
				{
					"attributes":{
						"POSITION":7,
						"NORMAL":8,
						"TEXCOORD_0":9,
						"JOINTS_0":10,
						"WEIGHTS_0":11
					},
					"indices":12,
					"material":1
				}
			]
		}
	],
	"textures":[
		{
			"sampler":0,
			"source":0
		},
		{
			"sampler":0,
			"source":0
		}
	],
	"images":[
		{
			"mimeType":"image/png",
			"name":"Sonryle",
			"uri":"Sonryle.png"
		}
	],
	"skins":[
		{
			"inverseBindMatrices":6,
			"joints":[
				12,
				11,
				6,
				5,
				0,
				2,
				1,
				4,
				3,
				8,
				7,
				10,
				9
			],
			"name":"SimpleSlimPlayer.arma"
		}
	],
	"accessors":[
		{
			"bufferView":0,
			"componentType":5126,
			"count":2665,
			"max":[
				0.4343675374984741,
				0.8547496795654297,
				0.24814198911190033
			],
			"min":[
				-0.43425682187080383,
				-1.1312505006790161,
				-0.248141810297966
			],
			"type":"VEC3"
		},
		{
			"bufferView":1,
			"componentType":5126,
			"count":2665,
			"type":"VEC3"
		},
		{
			"bufferView":2,
			"componentType":5126,
			"count":2665,
			"type":"VEC2"
		},
		{
			"bufferView":3,
			"componentType":5121,
			"count":2665,
			"type":"VEC4"
		},
		{
			"bufferView":4,
			"componentType":5126,
			"count":2665,
			"type":"VEC4"
		},
		{
			"bufferView":5,
			"componentType":5123,
			"count":12096,
			"type":"SCALAR"
		},
		{
			"bufferView":6,
			"componentType":5126,
			"count":13,
			"type":"MAT4"
		},
		{
			"bufferView":7,
			"componentType":5126,
			"count":2696,
			"max":[
				0.44634199142456055,
				0.8896589875221252,
				0.2800629436969757
			],
			"min":[
				-0.44623178243637085,
				-1.176660418510437,
				-0.2821706235408783
			],
			"type":"VEC3"
		},
		{
			"bufferView":8,
			"componentType":5126,
			"count":2696,
			"type":"VEC3"
		},
		{
			"bufferView":9,
			"componentType":5126,
			"count":2696,
			"type":"VEC2"
		},
		{
			"bufferView":10,
			"componentType":5121,
			"count":2696,
			"type":"VEC4"
		},
		{
			"bufferView":11,
			"componentType":5126,
			"count":2696,
			"type":"VEC4"
		},
		{
			"bufferView":12,
			"componentType":5123,
			"count":12096,
			"type":"SCALAR"
		}
	],
	"bufferViews":[
		{
			"buffer":0,
			"byteLength":31980,
			"byteOffset":0,
			"target":34962
		},
		{
			"buffer":0,
			"byteLength":31980,
			"byteOffset":31980,
			"target":34962
		},
		{
			"buffer":0,
			"byteLength":21320,
			"byteOffset":63960,
			"target":34962
		},
		{
			"buffer":0,
			"byteLength":10660,
			"byteOffset":85280,
			"target":34962
		},
		{
			"buffer":0,
			"byteLength":42640,
			"byteOffset":95940,
			"target":34962
		},
		{
			"buffer":0,
			"byteLength":24192,
			"byteOffset":138580,
			"target":34963
		},
		{
			"buffer":0,
			"byteLength":832,
			"byteOffset":162772
		},
		{
			"buffer":0,
			"byteLength":32352,
			"byteOffset":163604,
			"target":34962
		},
		{
			"buffer":0,
			"byteLength":32352,
			"byteOffset":195956,
			"target":34962
		},
		{
			"buffer":0,
			"byteLength":21568,
			"byteOffset":228308,
			"target":34962
		},
		{
			"buffer":0,
			"byteLength":10784,
			"byteOffset":249876,
			"target":34962
		},
		{
			"buffer":0,
			"byteLength":43136,
			"byteOffset":260660,
			"target":34962
		},
		{
			"buffer":0,
			"byteLength":24192,
			"byteOffset":303796,
			"target":34963
		}
	],
	"samplers":[
		{
			"magFilter":9728,
			"minFilter":9984
		}
	],
	"buffers":[
		{
			"byteLength":327988,
			"uri":"Untitled.bin"
		}
	]
}
